<svg xmlns="http://www.w3.org/2000/svg" viewBox="0 0 471.404 374.427" id="indian-man-booking-flight-ticket-online"><g data-name="Layer 2"><g data-name="Layer 1"><path fill="#f9e0c0" d="M151.98718,373.42713c-14.83684-4.63822-28.1489-9.37688-44.16355-18.37028C91.30681,345.7804,17.93524,301.63512,8.394,225.23227a145.73467,145.73467,0,0,1,6.08082-62.23253c2.94911-8.64645,9.06645-26.0124,24.50589-43.1866C57.88056,98.77679,79.44647,90.62338,92.092,86.01255a153.2469,153.2469,0,0,1,59.54821-8.84732c11.46773.37434,31.70973,1.21434,54.71824,11.26686,15.01031,6.5556,24.34154,14.03336,38.09186,25.20892,21.785,17.722,24.652,25.09936,62.76209,61.69384,10.46339,10.0434,19.06419,17.95942,32.19365,25.75675,9.103,5.40517,16.462,8.42732,30.03888,13.94206,33.37147,13.55858,42.873,16.30386,53.793,23.93684,21.23722,14.8551,19.86166,31.05531,20.7747,34.54311a68.59373,68.59373,0,0,1,1.61607,27.36369c-2.78476,18.32463-12.65468,30.30366-18.78115,37.55316a103.26277,103.26277,0,0,1-30.03888,24.14068,191.964,191.964,0,0,1-24.61545,10.856Z"></path><path fill="#f4c5a2" d="M104.88273,360.47528C82.96671,348.16278,10.71085,302.00067,1.08878,224.904a152.77869,152.77869,0,0,1,6.3545-65.02539c2.73535-8.02441,9.14062-26.81543,25.61035-45.14062,20.167-22.44043,43.15527-30.8252,55.50488-35.3291a159.9247,159.9247,0,0,1,62.19824-9.24707c10.59082.34375,32.62989,1.05859,57.166,11.77246l-.36524.83593c-24.376-10.64355-46.29589-11.35449-56.83007-11.69628A158.94829,158.94829,0,0,0,88.871,80.2663c-12.27539,4.47754-35.123,12.81055-55.13769,35.08105-16.34571,18.1875-22.709,36.8545-25.42676,44.82618A151.8339,151.8339,0,0,0,1.995,224.79071c9.56836,76.67285,81.5127,122.62891,103.335,134.8877Z"></path><rect width="169.632" height="128.738" x="274.29" fill="#e5e1e5" rx="7.713"></rect><rect width="169.632" height=".701" x="274.29" y="15.3" fill="#a2aee6"></rect><path fill="#ffba55" d="M283.88181,11.73791c4.06064,0,4.06737-6.3107,0-6.3107-4.06063,0-4.06736,6.3107,0,6.3107Z"></path><path fill="#f73c4f" d="M294.39966,11.73791c4.06063,0,4.06736-6.3107,0-6.3107-4.06064,0-4.06737,6.3107,0,6.3107Z"></path><path fill="#4f66d0" d="M304.21631,11.73791c4.06064,0,4.06736-6.3107,0-6.3107-4.06064,0-4.06736,6.3107,0,6.3107Z"></path><rect width="148.933" height="34.835" x="283.882" y="26.253" fill="#a2aee6"></rect><path fill="#4f66d0" d="M287.72257 115.99872l-.87109-.793a8.29645 8.29645 0 011.7334-1.44922l.625.99805A7.14245 7.14245 0 00287.72257 115.99872zM338.51164 117.96552a8.30674 8.30674 0 01-1.06348-.06836l.15039-1.168a7.14946 7.14946 0 003.72754-.51758l.46289 1.082A8.26316 8.26316 0 01338.51164 117.96552zm-34.59375-1.02344a8.25751 8.25751 0 01-3.20508-.64355l-.36524-.15333.45508-1.08593.36524.15332a7.05361 7.05361 0 003.36621.52441l.10351 1.17383C304.39738 116.93134 304.15812 116.94208 303.91789 116.94208zm29.48632-.73633l-3.248-2.53808.72461-.92774 3.248 2.53809zm-24.6875-.68555l-.52929-1.05273 3.68066-1.85449.5293 1.05273zm36.49414-.88183l-.873-.791 2.76758-3.05371.873.791zm-48.665-.085l-.80079-.335a7.10115 7.10115 0 00-2.749-.55176l-.17969.00195-.03515-1.17773.21484-.002a8.27208 8.27208 0 013.20313.64258l.80175.33594zM316.078 111.8122l-.5293-1.05274 3.08106-1.55176c.21484-.10839.43457-.207.65625-.29589l.43945 1.09179q-.28564.11572-.56543.25586zm10.8291-.68164l-.15722-.12305a7.14994 7.14994 0 00-3.28711-1.42383l.18164-1.16406a8.34223 8.34223 0 013.83105 1.65918l.15821.124zM350.746 108.531l-.87305-.791 1.45118-1.60156a8.33259 8.33259 0 011.5996-1.36817l.64649.98438a7.14547 7.14547 0 00-1.373 1.1748zm6.4043-3.93457l-.0586-1.17578c.12989-.00684.25879-.0127.38965-.00879h3.76074v1.17773h-3.76562C357.3632 104.58563 357.25675 104.59149 357.15031 104.59638zm20.57812-.00684h-4.12109v-1.17773h4.12109zm-8.24316 0h-4.1211v-1.17773h4.1211zm12.5-.32324l-.32617-1.13281a7.11616 7.11616 0 003.21191-1.95606l.85742.8086A8.31512 8.31512 0 01381.98527 104.2663zm6.39746-5.48438l-.91016-.748 2.61426-3.18653.91016.748zm5.22851-6.373l-.91015-.748 2.61426-3.18555.91015.74805zm24.58985-1.30469a8.27569 8.27569 0 01-2.791-.4834l-.91992-.32812.39649-1.10938.91894.32813a7.14771 7.14771 0 002.85742.39941l.07617 1.17578C418.56046 91.09833 418.38078 91.10419 418.20109 91.10419zM410.60832 88.906l-3.88086-1.38575.39648-1.10937 3.88086 1.38574zM399.19523 86.8581l-.46484-1.082a8.292 8.292 0 014.34277-.60839l-.1543 1.168A7.014 7.014 0 00399.19523 86.8581zM422.93449 89.62372l-.67188-.9668a7.17063 7.17063 0 001.42871-1.3125l.90625.752A8.337 8.337 0 01422.93449 89.62372zM287.72257 57.59442l-.87109-.793a8.2964 8.2964 0 011.7334-1.44921l.625.998A7.14245 7.14245 0 00287.72257 57.59442zM338.51164 59.5622a8.31065 8.31065 0 01-1.06446-.06836l.15039-1.168a7.14875 7.14875 0 003.72852-.51758l.46289 1.082A8.26316 8.26316 0 01338.51164 59.5622zm-34.59375-1.02442a8.25733 8.25733 0 01-3.20508-.64355l-.36426-.15137.45312-1.08789.36524.15234a7.01463 7.01463 0 003.36719.52539l.10351 1.17383C304.39738 58.527 304.15812 58.53778 303.91789 58.53778zm29.48632-.73633l-3.248-2.5371.72461-.92774 3.248 2.53711zm-24.6875-.68554l-.52929-1.05274 3.68066-1.85449.5293 1.05274zm36.49414-.88086l-.873-.791 2.76758-3.05371.873.791zm-48.665-.085l-.80079-.335a7.09854 7.09854 0 00-2.749-.55274l-.17969.002-.03515-1.17774.21484-.002a8.25354 8.25354 0 013.2041.64453l.80078.335zM316.078 53.4079l-.5293-1.05273 3.08106-1.55176c.21582-.10938.43652-.208.66016-.29688l.43359 1.09571c-.19043.07519-.37793.16015-.56348.25293zm10.8291-.68066l-.15722-.123a7.14135 7.14135 0 00-3.28711-1.42481l.18164-1.16406a8.32059 8.32059 0 013.83105 1.66113l.15821.123zM350.746 50.12665l-.87305-.791 1.45118-1.60058a8.33259 8.33259 0 011.5996-1.36817l.64649.98438a7.14547 7.14547 0 00-1.373 1.1748zm6.40332-3.93457l-.05859-1.17578c.12988-.00684.25976-.00977.39062-.00879h3.76074v1.17773h-3.76562C357.3632 46.18329 357.25578 46.1872 357.14933 46.19208zm20.57813-.00684h-4.1211V45.00751h4.1211zm-8.24219 0H365.3632V45.00751h4.12207zm12.5-.32324l-.32617-1.13281a7.1326 7.1326 0 003.21386-1.95606l.85547.8086A8.32029 8.32029 0 01381.98527 45.862zm6.39746-5.48437l-.91016-.74805 2.61426-3.18555.91016.748zm5.22851-6.37207l-.91015-.748 2.61426-3.18652.91015.748zm24.58985-1.30567a8.27569 8.27569 0 01-2.791-.4834l-.9209-.3291.39649-1.10937.91992.3291a7.14522 7.14522 0 002.85645.39941l.07617 1.17578C418.55949 32.694 418.38078 32.69989 418.20109 32.69989zm-7.59375-2.19824l-3.88086-1.38672.39648-1.10937 3.88086 1.38672zm-11.41211-2.04883l-.46484-1.082a8.30827 8.30827 0 014.34179-.6084l-.15234 1.168A7.019 7.019 0 00399.19523 28.45282zM422.93449 31.21942l-.67188-.96679a7.17093 7.17093 0 001.42871-1.3125l.90625.752A8.33666 8.33666 0 01422.93449 31.21942z"></path><rect width="65.127" height=".701" x="283.882" y="69.825" fill="#a2aee6"></rect><rect width="65.127" height=".701" x="283.882" y="80.426" fill="#a2aee6"></rect><rect width="65.127" height=".701" x="283.882" y="91.028" fill="#a2aee6"></rect><circle cx="293.375" cy="45.824" r="4.345" fill="#fff"></circle><path fill="#f73c4f" d="M293.38336,39.26221a6.27024,6.27024,0,0,0-6.27064,6.27064c0,2.76158,3.986,8.82614,5.60261,11.17136a.7609.7609,0,0,0,1.33606,0c1.6149-2.34522,5.60262-8.40978,5.60262-11.17136a6.27025,6.27025,0,0,0-6.27065-6.27064Zm0,2.92629a3.34435,3.34435,0,1,1-3.34434,3.34435,3.34448,3.34448,0,0,1,3.34434-3.34435Z"></path><circle cx="423.018" cy="22.212" r="4.345" fill="#fff"></circle><path fill="#4f66d0" d="M423.02686 15.65055a6.27024 6.27024 0 00-6.27064 6.27065c0 2.76157 3.986 8.82613 5.60261 11.17136a.7609.7609 0 001.33606 0c1.6149-2.34523 5.60262-8.40979 5.60262-11.17136a6.27026 6.27026 0 00-6.27065-6.27065zm0 2.92629a3.34435 3.34435 0 11-3.34434 3.34436 3.34449 3.34449 0 013.34434-3.34436zM354.33951 72.646l-1.35035.677-.15821-2.03288-1.53427-1.343 1.35035-.677.78818.45985 2.90465-1.46633L352.981 65.72986l1.35037-.677 4.04213 2.19123 2.35507-1.1807a1.13293 1.13293 0 011.01549 2.02556l-2.33143 1.16885-.66932 4.5566-1.35037.677-.03218-4.20491-2.91413 1.461z"></path><path fill="#a2aee6" d="M293.38336,110.17554c-.7633.34047-1.95539.99775-3.29828,1.76694l-6.43286-.89756a2.59662,2.59662,0,0,0-1.07666.073l-1.3947.39579c-.12018,0-.12018.12014,0,.16612l5.37032,2.35589c-1.81407,1.08608-3.429,2.07561-4.137,2.522a1.02237,1.02237,0,0,1-.85637.106l-1.40293-.44644a1.03548,1.03548,0,0,0-.69029,0l-.88818.36279,2.96846,2.47607a1.04394,1.04394,0,0,0,1.0896.152c1.41713-.63492,5.15363-2.35593,7.93361-3.806,6.17018-3.27118,6.85572-3.8378,6.85572-4.35726,0-.814-2.35589-1.64681-4.04041-.86938Z"></path><rect width="18.847" height="1.178" x="278.576" y="122.825" fill="#a2aee6"></rect><path fill="#a2aee6" d="M439.09546,79.01c-.83753-.23446-2.22752-.50652-3.806-.79162l-4.4998-4.99222a2.63327,2.63327,0,0,0-.87876-.6396l-1.40883-.64438c-.10486,0-.17435,0-.11428.12844.06007.12953,1.70688,3.40545,2.69636,5.40685-2.16745-.34047-4.12291-.62083-4.984-.74093a1.07464,1.07464,0,0,1-.71268-.47826l-.85162-1.26518a1.12458,1.12458,0,0,0-.56073-.42405l-.94825-.27091.71736,3.84251a1.07727,1.07727,0,0,0,.75977.82341c1.55967.44641,5.67309,1.57843,8.86658,2.25933,7.06779,1.50894,8.00658,1.50894,8.38358,1.072.37807-.43231-.78688-2.80237-2.65869-3.28534Z"></path><rect width="18.847" height="1.178" x="423.027" y="86.078" fill="#a2aee6"></rect><path fill="#f9977a" d="M220.72839,131.78987l14.73615-18.78351,9.025,6.69092-17.7003,36.14659c-1.901,3.94969-4.06758,7.61548-8.451,7.61548h0Z"></path><path fill="#f9977a" d="M235.46454,113.00636l3.65-8.26082a7.0744,7.0744,0,0,1,1.82041-2.47194l5.83614-5.0911s3.28646-1.49384,8.06676,2.53953c0,0-.25861,2.83676-6.98091,1.34292l.10923,2.83985,6.87168-.59754,4.48153.14938s5.6766-4.03337,6.72229-4.03337c0,0,6.87168.44815-5.826,6.87168l-2.78783,4.53022a6.80341,6.80341,0,0,1-5.79418,3.23776h-4.41442l-2.72971,5.63435Z"></path><polygon fill="#1b2e35" points="247.817 109.731 246.024 107.341 272.017 94.643 273.063 96.912 247.817 109.731"></polygon><path fill="#f9977a" d="M254.13485,113.58512l-5.86022-1.00936a1.09128,1.09128,0,0,1-.906-1.07544h0a1.09127,1.09127,0,0,1,1.169-1.0885l7.1965.514-4.91113-1.28625a1.38829,1.38829,0,0,1-.9859-1.71456h0a1.38829,1.38829,0,0,1,1.70288-.96782l4.94108,1.34741-3.832-2.32011a1.18852,1.18852,0,0,1-.43028-1.58132h0a1.18853,1.18853,0,0,1,1.46164-.5488l6.53526,2.44054"></path><path fill="#dd765e" d="M254.13468,113.80536a.16553.16553,0,0,1-.03711-.00391l-5.86035-1.00878a1.31152,1.31152,0,0,1,.31641-2.60059l4.82519.34473-2.61133-.68457a1.60821,1.60821,0,1,1,.83008-3.10743l3.42481.9336-2.48731-1.50586a1.40853,1.40853,0,0,1,1.22266-2.52442l6.53516,2.44043a.219.219,0,0,1,.1289.28321.22129.22129,0,0,1-.2832.1289l-6.53516-2.44043a.98012.98012,0,0,0-1.1914.44727.96753.96753,0,0,0,.35156,1.28809l3.832,2.32031a.21981.21981,0,0,1,.08789.27539.22281.22281,0,0,1-.25977.126l-4.9414-1.34668a1.16761,1.16761,0,1,0-.60352,2.25585l4.91114,1.28614a.22015.22015,0,0,1,.16211.249.22535.22535,0,0,1-.2334.18359l-7.19629-.51367a.87132.87132,0,0,0-.21094,1.72754l5.86035,1.00879a.22036.22036,0,0,1-.03711.4375Z"></path><path fill="#f9977a" d="M198.21534,273.99983l-1.99118-14.37238s21.99007-15.18081,31.75139-8.52521l-2.9628,107.03435c-7.25339,11.98381-16.46738,5.91828-16.46738,5.91828l-4.92378-64.93437-43.25035,28.22962-5.3946,3.324c-13.95513,1.21686-14.23433-8.56438-14.23433-8.56438Z"></path><path fill="#dd765e" d="M198.21513 273.9997a8.90112 8.90112 0 001.7511.37329 5.15552 5.15552 0 001.67224-.10376 8.10615 8.10615 0 001.62353-.5437c.52905-.248 1.07068-.51319 1.61255-.83448a4.77621 4.77621 0 01-3.066 2.18165 3.90357 3.90357 0 01-1.96643-.07325A3.63847 3.63847 0 01198.21513 273.9997zM224.13029 255.342c.16943 4.44922.2489 8.8982.31457 13.34741.04944 2.22461.04029 4.449.0586 6.67359a18.88982 18.88982 0 01-1.09864 6.68408 18.6707 18.6707 0 01-3.4707 5.82227 52.48 52.48 0 01-4.73474 4.75659c-3.3429 2.91943-7.16895 5.59814-11.57788 6.49463a20.83935 20.83935 0 005.97827-2.8335 37.35743 37.35743 0 005.175-4.12939 65.9425 65.9425 0 004.59436-4.77832 18.49835 18.49835 0 004.38794-12.01636c.01843-2.22461.00928-4.449.05859-6.67359C223.88151 264.24018 223.96085 259.7912 224.13029 255.342z"></path><path fill="#ffba55" d="M224.1303,192.592l5.62021,58.51029H224.1303v5.17651l-36.97509,4.437-1.9227-30.61537-9.18918-18.0294a20.99261,20.99261,0,0,1-2.27189-10.38493l.66434-16.35018Z"></path><path fill="#935b50" d="M147.81867 316.1862s-14.09864-.61977-16.47672 7.22846a2.74141 2.74141 0 00.43234 2.417l26.2301 35.47415a1.43831 1.43831 0 002.13357.19471c1.69561-1.55323 4.40268-4.85385 3.388-9.458-1.4428-6.54636-8.18359-8.79626-7.118-22.25031C156.40787 329.79222 145.62264 322.93569 147.81867 316.1862zM207.76261 354.6826s-8.89881 11.11553-3.96653 17.66708a2.74145 2.74145 0 002.20636 1.07741l44.11775-.23951a1.4383 1.4383 0 001.41635-1.60748c-.2532-2.2855-1.32012-6.41878-5.63583-8.31681-6.13625-2.69869-10.48959 2.16415-20.722-6.63616C225.17875 356.62713 211.91535 360.43873 207.76261 354.6826z"></path><path fill="#f9977a" d="M201.69956,47.243a19.70774,19.70774,0,0,1,9.20521.789c1.38857.49234,6.46714,2.29294,8.94248,7.10125.94016,1.82608,1.15259,4.02282,1.578,8.41628.26567,2.74424,1.32258,4.70969,1.321,8.05672a28.27685,28.27685,0,0,1-1.321,7.98683c-1.23074,4.04616-.43824,6.34492-1.052,7.10125-2.47347,3.0482-9.98254.65652-10.09532,4.63412-.06964,2.45607,4.07562,13.059,3.991,15.93627-.1972,6.70481-11.394-.312-18.0926-10.313-.304-.45389-4.88326-3.13451-4.40408-7.47845.256-2.32061,2.22625-13.20939,2.0371-14.61431-.68412-5.07792-3.24294-5.69719-5.26024-11.8354a9.54778,9.54778,0,0,1,1.578-9.20532A19.50262,19.50262,0,0,1,201.69956,47.243Z"></path><ellipse cx="220.369" cy="67.856" fill="#0a0709" rx="1.031" ry="1.282"></ellipse><ellipse cx="211.073" cy="67.856" fill="#0a0709" rx="1.031" ry="1.282"></ellipse><path fill="#1e1d22" d="M215.46574 65.56024a.6505.6505 0 01-.35547-1.19629 6.914 6.914 0 017.71582.02637.65039.65039 0 01-.78125 1.04h0a5.50631 5.50631 0 00-6.22559.02539A.64509.64509 0 01215.46574 65.56024zM205.831 65.56024a.65051.65051 0 01-.35547-1.19629 6.914 6.914 0 017.71582.02637.65039.65039 0 01-.78125 1.04h0a5.50544 5.50544 0 00-6.22558.02539A.64512.64512 0 01205.831 65.56024z"></path><path fill="#dd765e" d="M214.57951 65.82562a5.81807 5.81807 0 00.563 3.10572 12.95043 12.95043 0 001.61768 2.74365l.52051.62036a1.2624 1.2624 0 01.33374.86841 2.06809 2.06809 0 01-.87573 1.4939 3.73251 3.73251 0 01-3.20948.40673 4.00632 4.00632 0 002.99793-.66479 1.85668 1.85668 0 00.6925-1.24023c.03369-.4358-.45849-.76758-.79577-1.21119a11.80285 11.80285 0 01-1.58533-2.883A5.105 5.105 0 01214.57951 65.82562zM197.685 66.25946a3.92514 3.92514 0 00-.98768.488 4.76248 4.76248 0 00-.82446.68921 15.487 15.487 0 00-1.42029 1.70166c.04163-.18848.1095-.36719.16516-.5542l.24952-.52222a4.76662 4.76662 0 01.70141-.93383A2.7063 2.7063 0 01197.685 66.25946z"></path><path fill="#dd765e" d="M196.84733,71.60614a7.90471,7.90471,0,0,0-.02625-2.3811,5.32178,5.32178,0,0,0-.28674-1.13745c-.11841-.3794-.30139-.73389-.46558-1.11963a3.4624,3.4624,0,0,1,.77124.98559,4.17108,4.17108,0,0,1,.4087,1.20142A3.76558,3.76558,0,0,1,196.84733,71.60614Z"></path><path fill="#1e1d22" d="M203.15454,76.38486s-1.708-7.37352-1.39533-9.48453c.436-2.94159.654-4.4123.30167-5.60939-.56384-1.91609.36992-2.16559,1.57085-4.2248,1.12712-1.93264,4.61924-.36822,5.49069-.69034,2.44588-.90422,2.35542-1.93411,4.009-2.03693,1.696-.10545,2.94053-.55349,4.03611.54071,1.11732,1.11686,3.16773,4.08563,3.67333,3.57059a9.66415,9.66415,0,0,0,1.89139-4.87211,10.7125,10.7125,0,0,0-1.20105-5.00637c-.40144-.89329-1.89637-4.21779-5.009-5.10532-1.79275-.51126-2.13671.35214-6.0147.58166-4.02227.23818-4.14713-.66118-6.25359-.06249-2.33174.66284-2.24306,1.78248-6.22781,3.95916a41.25839,41.25839,0,0,1-4.06816,1.87545c-5.00258,2.11838-5.65681,1.77966-6.80734,2.89144-2.48038,2.39694-2.07536,6.51821-1.97755,7.51369.27567,2.80365,1.37035,3.64616,3.75123,8.13732,3.77,7.11239,3.01349,10.101,4.39518,11.09828.67781.48921,4.25392-2.053,4.23736-3.30562-.02152-1.6421-1.20463-2.16026-2.598-4.53368-.97313-1.65873-2.371-4.04019-1.56643-6.199.48686-1.305,1.03006-.948,2.38217-.82261,1.83508.17015,2.73783,2.72638,3.47363,4.60245a10.04186,10.04186,0,0,1,.671,4.26982C199.72492,76.71869,203.78669,77.67737,203.15454,76.38486Z"></path><path fill="#0a0709" d="M211.3888,79.59549s4.06075,3.78743,7.692,0"></path><path fill="#f73c4f" d="M212.19148,98.85315s10.164,29.63972-20.30346-10.29337L182.44178,96.402A23.59377,23.59377,0,0,0,174.47,109.48442l-8.31664,37.7918H177.098l-2.66221,38.05969,51.32142,7.49362S224.47045,119.91843,212.19148,98.85315Z"></path><path fill="#f9977a" d="M189.58991,148.28118,186.0906,167.722l13.45924,31.94658,5.98919,5.62028a29.97953,29.97953,0,0,1-7.30114,15.22675s-4.01285-7.3882-3.71716-15.0789l-24.38727-28.10283a18.15977,18.15977,0,0,1-4.20985-14.8089l2.41887-14.91741S182.44,142.44705,189.58991,148.28118Z"></path><path fill="#e6952a" d="M224.13029,251.10224c-.39087-3.28345-.692-6.573-.97937-9.86353-.28943-3.29028-.505-6.58569-.76111-9.87817-.18982-3.29712-.41492-6.5918-.57141-9.89112-.15589-3.29931-.29883-6.59961-.35034-9.90576.39221,3.28345.693,6.573.98083,9.86328.28723,3.29053.50574,6.5857.75977,9.87842.1875,3.29712.41565,6.59155.56994,9.89111C223.93485,244.49579,224.07755,247.79608,224.13029,251.10224Z"></path><path fill="#b02336" d="M219.10172,181.885c-1.0011-.37207-1.98425-.7937-2.98181-1.19165q-1.4403-.70861-2.8706-1.45483a35.20544,35.20544,0,0,1-5.29346-3.69165,24.17521,24.17521,0,0,1-4.30725-4.82862,13.60647,13.60647,0,0,1-2.29492-5.98974,12.00718,12.00718,0,0,0,1.152,2.95263,19.44265,19.44265,0,0,0,1.6626,2.67725,26.554,26.554,0,0,0,4.32532,4.56836,41.56987,41.56987,0,0,0,5.07886,3.772l2.72949,1.6377C217.23161,180.852,218.17558,181.34369,219.10172,181.885Z"></path><path fill="#f73c4f" d="M188.33841,96.1027s14.617,2.0706,11.1539,22.48085-5.31157,29.58007-5.31157,29.58007l-28.02738-.8874"></path><path fill="#b02336" d="M188.33842,96.10272a14.14381,14.14381,0,0,1,10.66137,9.06275,20.25928,20.25928,0,0,1,.98548,3.53906c.10754.60254.13721,1.21582.20923,1.824a12.279,12.279,0,0,1,.11682,1.83081,39.454,39.454,0,0,1-.64112,7.28149l-2.5205,14.30591-2.617,14.28784-.05444.29785-.30908-.00976c-4.67114-.148-9.33972-.37915-14.00977-.56568-4.66992-.18579-9.33728-.45654-14.0061-.68066,4.67358.07153,9.34875.09668,14.02112.20654,4.67248.10938,9.34631.17383,14.01758.32178l-.36341.28784,2.51575-14.29565,2.61218-14.27784a43.54537,43.54537,0,0,0,.72046-7.15112,11.81936,11.81936,0,0,0-.0769-1.78906c-.05811-.59375-.07361-1.19556-.16614-1.78418a19.73977,19.73977,0,0,0-.88672-3.46045,14.55646,14.55646,0,0,0-3.87671-5.9292A13.83788,13.83788,0,0,0,188.33842,96.10272Z"></path><path fill="#e6952a" d="M205.98783,197.95673a30.5766,30.5766,0,0,1-.34643,7.89648,33.36582,33.36582,0,0,1-2.27222,7.614,26.29082,26.29082,0,0,1-4.2738,6.70581,23.964,23.964,0,0,1-6.12281,4.99731q.76209-.63392,1.5304-1.24267l.7655-.61133c.24744-.2124.46558-.45948.6991-.687l1.3988-1.36231c.42591-.49145.83008-1.0022,1.245-1.50049a27.89322,27.89322,0,0,0,4.008-6.6333,36.539,36.539,0,0,0,2.40418-7.39844c.27417-1.27392.50171-2.56054.65027-3.85937A34.798,34.798,0,0,0,205.98783,197.95673Z"></path><path fill="#dd765e" d="M213.52906,88.79379l.002.00121c-1.79058.29428-3.20483.82608-3.253,2.53341a14.37874,14.37874,0,0,0,.65958,3.31456c-3.96873-.25728-7.02029-8.57737-7.02029-8.57737C206.37076,89.61526,213.52906,88.79379,213.52906,88.79379Z"></path><path fill="#a2aee6" d="M252.50383,87.53918,250.15848,88.715l-.27479-3.53079-2.66479-2.33264,2.34535-1.17582,1.36893.79869,5.04494-2.54679-5.83379-4.40079,2.34539-1.17584,7.02055,3.80582,4.09039-2.05068a1.96772,1.96772,0,0,1,1.76376,3.51807l-4.04935,2.03011-1.1625,7.9141-2.34539,1.17584L257.7513,83.441l-5.06139,2.53748Z"></path><path fill="#935b50" d="M470.40421,374.42743H13.88664a1,1,0,0,1,0-2H470.40421a1,1,0,0,1,0,2Z"></path><polygon fill="#a5716a" points="383.634 284.863 277.829 280.708 334.06 278.749 427.305 284.224 433.787 286.971 383.634 284.863"></polygon><polygon fill="#d3a39c" points="435.545 311.388 376.581 326.043 378.306 284.639 433.787 286.971 435.545 311.388"></polygon><path fill="#d3a39c" d="M427.07671,286.689l6.71064.28206L445.17521,217.831a12.06084,12.06084,0,0,0-10.22835-13.90446l-5.69415-.79715Z"></path><path fill="#935b50" d="M318.69685,373.42713a5.3126,5.3126,0,0,1-.38-2v-49.28a5.5,5.5,0,0,1,11,0v49.28a5.3126,5.3126,0,0,1-.38,2Z"></path><path fill="#935b50" d="M390.20549,332.69844c-.10156,0-.20312-.00293-.30566-.00781L278.54827,326.591a5.50042,5.50042,0,0,1,.60156-10.98438l111.35156,6.09961a5.5002,5.5002,0,0,1-.2959,10.99219Z"></path><path fill="#935b50" d="M272.98685,373.42713a5.50693,5.50693,0,0,1-.31-1.91l1.58-110.23a18.4575,18.4575,0,0,1,6.41-13.67,21.10679,21.10679,0,0,1,16.24-5.05l39.92,4.43a5.49839,5.49839,0,0,1-1.21,10.93l-39.92-4.42a10.03231,10.03231,0,0,0-7.75,2.36,7.57294,7.57294,0,0,0-2.69,5.58l-1.58,110.23a5.32455,5.32455,0,0,1-.32,1.75Z"></path><path fill="#c38f86" d="M376.69514 321.077l-99.62-4.61165a5.90743 5.90743 0 01-5.69765-5.89974l.20767-24.01911a5.96643 5.96643 0 016.24352-5.83843l99.93568 3.69083a5.90723 5.90723 0 015.75377 5.97309l-.52339 24.93993A5.96966 5.96966 0 01376.69514 321.077zM427.30515 284.22373l-93.24535-5.47459 6.39063-69.256a8 8 0 017.992-7.26488l77.68789.25107a8 8 0 017.94 8.73813z"></path><path fill="#935b50" d="M446.25685,256.86713a5.44813,5.44813,0,0,1-4.43,1.42l-6.65-.84-30.06-3.82a7.94946,7.94946,0,0,0-8.93,7.82l-.81,110.18a5.12732,5.12732,0,0,1-.32,1.8h-10.36a5.58138,5.58138,0,0,1-.32-1.88l.81-110.18a18.93258,18.93258,0,0,1,21.31-18.65l29.56,3.75,7.15.91a5.45565,5.45565,0,0,1,3.65,2.08Z"></path><path fill="#935b50" d="M436.68685,373.42713a5.00122,5.00122,0,0,0,.31-1.4l9.26-115.16.6-7.41,3.53-43.96a5.50262,5.50262,0,0,0-10.97-.88l-3.36,41.85-.88,10.98-9.14,113.69a5.44584,5.44584,0,0,0,.31,2.29Z"></path><rect width="49.061" height="11.999" x="389.425" y="315.491" fill="#935b50" transform="rotate(-10.694 413.955 321.49)"></rect><rect width="94.32" height="127.8" x="22.886" y="226.527" fill="#e19974"></rect><rect width="112.32" height="3.6" x="13.886" y="215.727" fill="#935b50"></rect><rect width="69.48" height="18.72" x="35.306" y="231.927" fill="#d6694b"></rect><polygon fill="#d6694b" points="117.206 226.527 22.886 226.527 13.886 219.327 126.206 219.327 117.206 226.527"></polygon><rect width="69.48" height="82.44" x="35.306" y="260.367" fill="#d6694b"></rect><rect width="50.04" height="59.76" x="45.026" y="271.707" fill="#935b50"></rect><rect width="104.04" height="5.24" x="18.026" y="354.327" fill="#935b50"></rect><polygon fill="#e19974" points="36.886 373.427 33.026 373.427 28.026 359.567 41.886 359.567 36.886 373.427"></polygon><polygon fill="#e19974" points="107.066 373.427 103.206 373.427 98.206 359.567 112.066 359.567 107.066 373.427"></polygon><circle cx="69.326" cy="241.287" r="3.24" fill="#935b50"></circle><circle cx="87.826" cy="301.587" r="3.24" fill="#e19974"></circle><circle cx="88.502" cy="77.245" r="28.034" fill="#ffba55"></circle><path fill="#d77f4a" d="M88.50187,105.779a28.53418,28.53418,0,1,1,28.53418-28.53418A28.567,28.567,0,0,1,88.50187,105.779Zm0-56.06836a27.53418,27.53418,0,1,0,27.53418,27.53418A27.56509,27.56509,0,0,0,88.50187,49.71063Z"></path><path fill="#d77f4a" d="M88.50187,79.74481a.49971.49971,0,0,1-.5-.5V61.16767a.5.5,0,1,1,1,0V79.24481A.49971.49971,0,0,1,88.50187,79.74481Z"></path><path fill="#d77f4a" d="M72.94816,83.48505a.50015.50015,0,0,1-.22461-.94727l18.75684-9.40625a.50049.50049,0,1,1,.44921.89453L73.17277,83.43231A.49852.49852,0,0,1,72.94816,83.48505Z"></path><path fill="#fff" d="M63.06629,206.63533h51.30419a0,0,0,0,1,0,0v8.14531a0,0,0,0,1,0,0H63.06629a3.50483,3.50483,0,0,1-3.50483-3.50483v-1.13566A3.50483,3.50483,0,0,1,63.06629,206.63533Z"></path><path fill="#f65b2b" d="M115.97492,214.98913a.738.738,0,0,1-.738.738H61.98884c-2.03308,0-3.68681-2.233-3.68681-4.9782,0-2.74453,1.65373-4.97752,3.68681-4.97752h53.24808a.738.738,0,0,1,.738.738v.5809a.738.738,0,0,1-.738.738H61.98884c-1.19307,0-2.16349,1.31034-2.16349,2.92063,0,1.611.97042,2.92131,2.16349,2.92131h53.24808a.738.738,0,0,1,.738.738Z"></path><path fill="#fff" d="M55.06186,196.6796H106.366a0,0,0,0,1,0,0v8.14531a0,0,0,0,1,0,0H55.06186a3.50483,3.50483,0,0,1-3.50483-3.50483v-1.13566a3.50483,3.50483,0,0,1,3.50483-3.50483Z"></path><path fill="#ffba55" d="M107.97049,205.03341a.738.738,0,0,1-.738.738H53.98441c-2.03308,0-3.68681-2.233-3.68681-4.9782,0-2.74454,1.65373-4.97753,3.68681-4.97753h53.24808a.738.738,0,0,1,.738.738v.5809a.738.738,0,0,1-.738.738H53.98441c-1.19307,0-2.16349,1.31034-2.16349,2.92064,0,1.611.97042,2.9213,2.16349,2.9213h53.24808a.738.738,0,0,1,.738.738Z"></path><path fill="#fff" d="M71.44661,186.72387h51.30419a0,0,0,0,1,0,0v8.14531a0,0,0,0,1,0,0H71.44661a3.50483,3.50483,0,0,1-3.50483-3.50483V190.2287A3.50483,3.50483,0,0,1,71.44661,186.72387Z"></path><path fill="#f65b2b" d="M124.35524,195.07768a.738.738,0,0,1-.738.738H70.36915c-2.03307,0-3.6868-2.233-3.6868-4.9782,0-2.74454,1.65373-4.97753,3.6868-4.97753h53.24809a.738.738,0,0,1,.738.738v.5809a.738.738,0,0,1-.738.738H70.36915c-1.19306,0-2.16349,1.31033-2.16349,2.92063,0,1.611.97043,2.9213,2.16349,2.9213h53.24809a.738.738,0,0,1,.738.738Z"></path><polygon fill="#e19974" points="102.309 185.793 91.981 185.793 88.502 167.505 105.788 167.505 102.309 185.793"></polygon><polygon fill="#d6694b" points="105.391 169.592 105.788 167.505 88.502 167.505 88.899 169.592 105.391 169.592"></polygon><rect width="3.085" height="3.085" x="91.264" y="177.123" fill="#d6694b" transform="rotate(45 92.807 178.666)"></rect><rect width="3.085" height="3.085" x="95.628" y="177.123" fill="#d6694b" transform="rotate(45 97.17 178.666)"></rect><rect width="3.085" height="3.085" x="99.94" y="177.123" fill="#d6694b" transform="rotate(45 101.483 178.666)"></rect><path fill="#558031" d="M101.168,152.11312s.90687,12.81189-4.40838,15.52708C96.75957,167.6402,94.91944,162.78278,101.168,152.11312Z"></path><path fill="#849f4c" d="M84.01664,157.61655A18.74359,18.74359,0,0,1,96.75957,167.6402S87.19748,164.39252,84.01664,157.61655Z"></path><path fill="#a6b862" d="M87.09983,174.39841s4.42225-6.61587,9.65974-6.75821C96.75957,167.6402,95.97109,172.9672,87.09983,174.39841Z"></path><path fill="#849f4c" d="M92.55476,153.93931s6.1359,5.6023,4.20481,13.70089C96.75957,167.6402,93.3605,164.03724,92.55476,153.93931Z"></path><path fill="#a6b862" d="M96.75957,167.6402s2.15577-7.89136,13.05367-9.91492C109.81324,157.72528,107.36073,164.91049,96.75957,167.6402Z"></path><path fill="#849f4c" d="M112.70012,165.57734s-8.3148-3.42784-15.94055,2.06286C96.75957,167.6402,106.8972,168.85732,112.70012,165.57734Z"></path><path fill="#558031" d="M112.62447 173.55772s-4.01482-6.4308-15.8649-5.91752zM79.53788 166.59927s10.91991-4.04906 17.36459.84732C96.90247 167.44659 90.78308 170.81722 79.53788 166.59927z"></path><path fill="#558031" d="M88.49248,154.87485s9.74388,6.89156,8.34611,12.77095C96.83859,167.6458,90.07858,162.22571,88.49248,154.87485Z"></path><path fill="#849f4c" d="M105.585,174.49964s-8.03272-1.37136-8.82545-6.85944C96.75957,167.6402,102.62885,167.9309,105.585,174.49964Z"></path><path fill="#8b9d36" d="M28.49308,194.64228c-5.13769,0-16.05762-7.9336-17.36133-8.89356a.84437.84437,0,1,1,1.002-1.35937c4.999,3.68457,14.00488,9.26074,16.874,8.51074a.84416.84416,0,1,1,.42187,1.63476A3.759,3.759,0,0,1,28.49308,194.64228Z"></path><path fill="#8b9d36" d="M28.41105 195.27313a.84383.84383 0 01-.84082-.78222l-2.03711-27.93164a.844.844 0 111.68359-.12305l2.03711 27.93164a.84411.84411 0 01-.78027.90332C28.45207 195.27216 28.43156 195.27313 28.41105 195.27313zM36.98039 196.01532a.85437.85437 0 01-.14844-.01269.84412.84412 0 01-.6836-.97852c.09278-.52344 2.40821-12.88672 14.17286-18.376a.84365.84365 0 01.71289 1.5293C40.05753 183.2995 37.832 195.19892 37.81046 195.319A.84371.84371 0 0136.98039 196.01532z"></path><path fill="#5e7c24" d="M35.97178 192.29279c-.68618-1.34383-4.37361-1.3457-6.72827.30532a6.44811 6.44811 0 00-2.26792 2.976c-.40092 1.03272-1.0426 2.68518-.15114 3.81539a3.34542 3.34542 0 003.70425.68662 18.05592 18.05592 0 003.17517-3.12857C35.06986 195.21809 36.52486 193.376 35.97178 192.29279zM38.84466 192.14023c-.257.67482.25286 1.44837 1.20953 2.89963a13.93155 13.93155 0 003.3263 3.51028 3.96853 3.96853 0 004.68717.53405 3.79663 3.79663 0 001.73862-3.20495c-.01559-1.977-1.70478-3.2004-2.34338-3.66283C44.37018 189.97648 39.466 190.50909 38.84466 192.14023zM47.91632 179.47318c.22537-.38418.80942-.189 2.11677-.3817a24.34545 24.34545 0 003.25083-.99194 12.51155 12.51155 0 012.79721-.68682c.39621.00187 2.63562.012 3.40177 1.5262.80266 1.58623-.6833 3.49558-.7559 3.58645-1.43654 1.79488-3.89087 1.70732-4.68717 1.67876a7.23645 7.23645 0 01-5.06513-2.44175C48.79547 181.5618 47.52483 180.14013 47.91632 179.47318zM27.27808 172.07114c-.798-.40179-.331-2.95449-.07568-4.34945a25.89126 25.89126 0 011.43634-4.34965c1.32293-3.48544 1.6248-3.86093 2.11678-4.04413a3.16375 3.16375 0 013.47764 1.60238c.87464 1.69241-.46613 3.83195-1.89 6.10458C30.97577 169.21725 28.316 172.5936 27.27808 172.07114z"></path><path fill="#c4ce6e" d="M26.97559,178.78636c.58692-.95509-.493-2.82283-1.58748-3.81539a7.04345,7.04345,0,0,0-3.47764-1.44981c-1.81819-.43822-3.81951-.92052-4.38469-.07638-.53894.80481.51535,2.38586.75611,2.74707a6.68288,6.68288,0,0,0,3.09949,2.36557C22.99674,179.226,26.21825,180.01862,26.97559,178.78636Z"></path><path fill="#5e7c24" d="M27.05126 186.18821c.02154-.75989-1.077-.91742-3.3263-2.74708-1.78558-1.4525-1.83644-1.95758-2.87288-2.28919-1.58666-.50756-3.65791-.02422-4.00674.99193-.08531.24882-.07321.54586 1.2852 2.74708 1.05675 1.71229 1.59568 2.57506 2.11678 2.89963a4.96662 4.96662 0 003.77992.3815C24.97612 187.94748 27.02214 187.218 27.05126 186.18821zM27.878 177.40556c-.74093-.839.0046-2.86635.91363-4.03414a7.0709 7.0709 0 013.17874-2.032c1.71641-.74736 3.60571-1.57 4.30632-.83653.66805.69924-.10109 2.43977-.2767 2.8374a6.7143 6.7143 0 01-2.65017 2.86847C31.87243 177.14785 28.834 178.488 27.878 177.40556zM28.42621 185.29116c-.15071-.74483.90465-1.09075 2.80859-3.28366 1.51144-1.74088 1.47547-2.24725 2.44-2.75388 1.47651-.77547 3.59926-.659 4.116.28148.12644.2303.16515.525-.7979 2.92928-.7492 1.87024-1.13308 2.81372-1.59109 3.22393a4.97393 4.97393 0 01-3.65858 1.0321C30.77022 186.66392 28.63039 186.30057 28.42621 185.29116zM16.31625 189.24039c-.106-.828-1.46956-1.285-3.09949-1.83131-1.47263-.49348-2.64176-.88554-4.00673-.45788-.24138.07556-2.3885.74809-2.5704 2.36558-.16324 1.45085 1.38466 2.51006 1.512 2.59451a4.57313 4.57313 0 003.55311.3815C13.83055 191.88376 16.47231 190.45837 16.31625 189.24039z"></path><path fill="#c4ce6e" d="M22.43976,193.05578c-1.13836-.81226-3.28692.56552-4.30922,1.22109a9.03724,9.03724,0,0,0-2.64586,2.5943c-.78749,1.18176-1.53683,2.30659-1.13406,3.28134.57913,1.40117,3.07918,1.38026,3.402,1.37343a5.4371,5.4371,0,0,0,3.70425-1.67875,5.78365,5.78365,0,0,0,1.43655-2.89963C23.031,196.31269,23.56316,193.85749,22.43976,193.05578Z"></path><path fill="#8b9d36" d="M13.3679 185.27245c-.64044-.93129-.41609-1.59141-.68043-3.205-.4202-2.56512-1.31412-2.89362-.98272-4.19689.26086-1.02567 1.14473-2.12048 2.11678-2.13663 1.36148-.02277 2.23735 2.08157 2.41905 2.51813.66075 1.58726.41712 2.971 0 5.34159-.27234 1.54752-.48008 2.65537-1.13385 2.82346C14.47469 186.57964 13.72227 185.78766 13.3679 185.27245zM42.3221 185.04351c.202-.57153 1.27269-.65805 2.5704-.763 1.62132-.131 2.83658-.22935 4.00674.53406.18005.11736 2.07453 1.38895 1.73861 2.89983-.26249 1.18051-1.72938 1.79985-2.797 1.83132-1.15846.03415-1.94615-.62079-3.402-1.83132C43.2919 186.76076 42.07335 185.7473 42.3221 185.04351z"></path><path fill="#5e7c24" d="M44.21206,180.69406c-.291-.06624-.309-.47154-.68043-1.60258-.82994-2.52683-1.47961-2.75639-1.36067-3.81539.13166-1.17161,1.09858-2.41919,1.96543-2.36558.945.05838,1.51017,1.64667,1.73882,2.2894a4.95038,4.95038,0,0,1,.30249,2.36558C45.96565,179.206,44.84308,180.83792,44.21206,180.69406Z"></path><path fill="#8b9d36" d="M25.46358,169.70577c-.44111.62555-2.94568-.1153-4.6115-1.60258-.42532-.37964-2.3077-2.06046-1.81429-3.66283a1.88773,1.88773,0,0,1,1.512-1.37344c.70628-.01739,1.16544.70007,2.34359,2.44175C25.31593,169.09057,25.657,169.4315,25.46358,169.70577Z"></path><path fill="#c4ce6e" d="M39.22261,186.5697c-1.26858.34528-2.92845-2.3339-3.3263-2.976a9.84452,9.84452,0,0,1-1.512-5.49415c.05435-1.21342.1534-3.42582,1.43634-3.96794,1.22921-.51936,2.892.77044,3.70425,1.75493,1.60286,1.94226,1.34795,4.455,1.13406,6.56246C40.49243,184.0909,40.26972,186.28467,39.22261,186.5697Z"></path><path fill="#e19974" d="M39.40651,215.72713H26.94116l-4.01023-21.27554a.84563.84563,0,0,1,.82518-1.00634H42.59156a.84562.84562,0,0,1,.82518,1.00634Z"></path><path fill="#d6694b" d="M43.127,195.98885l.28977-1.53725a.84562.84562,0,0,0-.82518-1.00634H23.7561a.84562.84562,0,0,0-.82518,1.00634l.28977,1.53725Z"></path><polygon fill="#d6694b" points="27.938 209.702 25.304 207.044 27.938 204.386 30.571 207.044 27.938 209.702"></polygon><polygon fill="#d6694b" points="33.204 209.702 30.571 207.044 33.204 204.386 35.837 207.044 33.204 209.702"></polygon><polygon fill="#d6694b" points="38.41 209.702 35.777 207.044 38.41 204.386 41.043 207.044 38.41 209.702"></polygon></g></g></svg>